<svg width="235" height="44" viewBox="0 0 235 44" fill="none" xmlns="http://www.w3.org/2000/svg">
<path d="M54.2656 13.293C54.1602 14.1953 53.8262 14.8926 53.2637 15.3848C52.7051 15.873 51.9609 16.1172 51.0312 16.1172C50.0234 16.1172 49.2148 15.7559 48.6055 15.0332C48 14.3105 47.6973 13.3438 47.6973 12.1328V11.3125C47.6973 10.5195 47.8379 9.82227 48.1191 9.2207C48.4043 8.61914 48.8066 8.1582 49.3262 7.83789C49.8457 7.51367 50.4473 7.35156 51.1309 7.35156C52.0371 7.35156 52.7637 7.60547 53.3105 8.11328C53.8574 8.61719 54.1758 9.31641 54.2656 10.2109H53.1348C53.0371 9.53125 52.8242 9.03906 52.4961 8.73438C52.1719 8.42969 51.7168 8.27734 51.1309 8.27734C50.4121 8.27734 49.8477 8.54297 49.4375 9.07422C49.0312 9.60547 48.8281 10.3613 48.8281 11.3418V12.168C48.8281 13.0938 49.0215 13.8301 49.4082 14.377C49.7949 14.9238 50.3359 15.1973 51.0312 15.1973C51.6562 15.1973 52.1348 15.0566 52.4668 14.7754C52.8027 14.4902 53.0254 13.9961 53.1348 13.293H54.2656ZM60.5176 13.7734H56.9434L56.1406 16H54.9805L58.2383 7.46875H59.2227L62.4863 16H61.332L60.5176 13.7734ZM57.2832 12.8477H60.1836L58.7305 8.85742L57.2832 12.8477ZM68.457 12.0566H64.7598V15.0801H69.0547V16H63.6348V7.46875H68.9961V8.39453H64.7598V11.1367H68.457V12.0566Z" fill="#333333"/>
<path d="M128.459 13.1582C128.393 14.0762 128.053 14.7988 127.439 15.3262C126.83 15.8535 126.025 16.1172 125.025 16.1172C123.932 16.1172 123.07 15.75 122.441 15.0156C121.816 14.2773 121.504 13.2656 121.504 11.9805V11.459C121.504 10.6387 121.648 9.91602 121.938 9.29102C122.227 8.66602 122.639 8.1875 123.174 7.85547C123.713 7.51953 124.338 7.35156 125.049 7.35156C126.033 7.35156 126.826 7.61523 127.428 8.14258C128.029 8.66992 128.377 9.41016 128.471 10.3633H126.713C126.67 9.8125 126.516 9.41406 126.25 9.16797C125.988 8.91797 125.588 8.79297 125.049 8.79297C124.463 8.79297 124.023 9.00391 123.73 9.42578C123.441 9.84375 123.293 10.4941 123.285 11.377V12.0215C123.285 12.9434 123.424 13.6172 123.701 14.043C123.982 14.4688 124.424 14.6816 125.025 14.6816C125.568 14.6816 125.973 14.5586 126.238 14.3125C126.508 14.0625 126.662 13.6777 126.701 13.1582H128.459ZM136.311 13.1582C136.244 14.0762 135.904 14.7988 135.291 15.3262C134.682 15.8535 133.877 16.1172 132.877 16.1172C131.783 16.1172 130.922 15.75 130.293 15.0156C129.668 14.2773 129.355 13.2656 129.355 11.9805V11.459C129.355 10.6387 129.5 9.91602 129.789 9.29102C130.078 8.66602 130.49 8.1875 131.025 7.85547C131.564 7.51953 132.189 7.35156 132.9 7.35156C133.885 7.35156 134.678 7.61523 135.279 8.14258C135.881 8.66992 136.229 9.41016 136.322 10.3633H134.564C134.521 9.8125 134.367 9.41406 134.102 9.16797C133.84 8.91797 133.439 8.79297 132.9 8.79297C132.314 8.79297 131.875 9.00391 131.582 9.42578C131.293 9.84375 131.145 10.4941 131.137 11.377V12.0215C131.137 12.9434 131.275 13.6172 131.553 14.043C131.834 14.4688 132.275 14.6816 132.877 14.6816C133.42 14.6816 133.824 14.5586 134.09 14.3125C134.359 14.0625 134.514 13.6777 134.553 13.1582H136.311ZM140.904 7.46875H142.662V13.375C142.662 13.918 142.541 14.3984 142.299 14.8164C142.061 15.2305 141.723 15.5508 141.285 15.7773C140.848 16.0039 140.354 16.1172 139.803 16.1172C138.9 16.1172 138.197 15.8887 137.693 15.4316C137.189 14.9707 136.938 14.3203 136.938 13.4805H138.707C138.707 13.8984 138.795 14.207 138.971 14.4062C139.146 14.6055 139.424 14.7051 139.803 14.7051C140.139 14.7051 140.406 14.5898 140.605 14.3594C140.805 14.1289 140.904 13.8008 140.904 13.375V7.46875Z" fill="#333333"/>
<path d="M180.115 12.6602V16H178.99V7.46875H182.137C183.07 7.46875 183.801 7.70703 184.328 8.18359C184.859 8.66016 185.125 9.29102 185.125 10.0762C185.125 10.9043 184.865 11.543 184.346 11.9922C183.83 12.4375 183.09 12.6602 182.125 12.6602H180.115ZM180.115 11.7402H182.137C182.738 11.7402 183.199 11.5996 183.52 11.3184C183.84 11.0332 184 10.623 184 10.0879C184 9.58008 183.84 9.17383 183.52 8.86914C183.199 8.56445 182.76 8.40625 182.201 8.39453H180.115V11.7402ZM187.691 15.0801H191.734V16H186.561V7.46875H187.691V15.0801ZM197.84 12.0566H194.143V15.0801H198.438V16H193.018V7.46875H198.379V8.39453H194.143V11.1367H197.84V12.0566ZM206.395 16H205.264L200.969 9.42578V16H199.838V7.46875H200.969L205.275 14.0723V7.46875H206.395V16ZM213.209 13.7734H209.635L208.832 16H207.672L210.93 7.46875H211.914L215.178 16H214.023L213.209 13.7734ZM209.975 12.8477H212.875L211.422 8.85742L209.975 12.8477ZM211.979 5.18359H213.291L211.721 6.90625H210.848L211.979 5.18359ZM219.455 12.5488H217.451V16H216.32V7.46875H219.145C220.105 7.46875 220.844 7.6875 221.359 8.125C221.879 8.5625 222.139 9.19922 222.139 10.0352C222.139 10.5664 221.994 11.0293 221.705 11.4238C221.42 11.8184 221.021 12.1133 220.51 12.3086L222.514 15.9297V16H221.307L219.455 12.5488ZM217.451 11.6289H219.18C219.738 11.6289 220.182 11.4844 220.51 11.1953C220.842 10.9062 221.008 10.5195 221.008 10.0352C221.008 9.50781 220.85 9.10352 220.533 8.82227C220.221 8.54102 219.768 8.39844 219.174 8.39453H217.451V11.6289ZM224.928 16H223.803V7.46875H224.928V16ZM233.553 12.0098C233.553 12.8457 233.412 13.5762 233.131 14.2012C232.85 14.8223 232.451 15.2969 231.936 15.625C231.42 15.9531 230.818 16.1172 230.131 16.1172C229.459 16.1172 228.863 15.9531 228.344 15.625C227.824 15.293 227.42 14.8223 227.131 14.2129C226.846 13.5996 226.699 12.8906 226.691 12.0859V11.4707C226.691 10.6504 226.834 9.92578 227.119 9.29688C227.404 8.66797 227.807 8.1875 228.326 7.85547C228.85 7.51953 229.447 7.35156 230.119 7.35156C230.803 7.35156 231.404 7.51758 231.924 7.84961C232.447 8.17773 232.85 8.65625 233.131 9.28516C233.412 9.91016 233.553 10.6387 233.553 11.4707V12.0098ZM232.434 11.459C232.434 10.4473 232.23 9.67188 231.824 9.13281C231.418 8.58984 230.85 8.31836 230.119 8.31836C229.408 8.31836 228.848 8.58984 228.438 9.13281C228.031 9.67188 227.822 10.4219 227.811 11.3828V12.0098C227.811 12.9902 228.016 13.7617 228.426 14.3242C228.84 14.8828 229.408 15.1621 230.131 15.1621C230.857 15.1621 231.42 14.8984 231.818 14.3711C232.217 13.8398 232.422 13.0801 232.434 12.0918V11.459Z" fill="#333333"/>
<rect x="16" y="39" width="10" height="10" transform="rotate(-90 16 39)" fill="#C4C4C4"/>
<rect y="39" width="10" height="10" transform="rotate(-90 0 39)" fill="#C4C4C4"/>
<rect x="32" y="39" width="10" height="10" transform="rotate(-90 32 39)" fill="#C4C4C4"/>
<rect x="116" y="29" width="10" height="42" transform="rotate(90 116 29)" fill="#C4C4C4"/>
<rect x="190" y="29" width="10" height="42" transform="rotate(90 190 29)" fill="#C4C4C4"/>
<circle cx="58" cy="34" r="10" fill="#C4C4C4"/>
<rect x="54" y="33.9724" width="2" height="5" transform="rotate(-45 54 33.9724)" fill="white"/>
<rect x="61.0938" y="31" width="2" height="7.20379" transform="rotate(45 61.0938 31)" fill="white"/>
<circle cx="206" cy="34" r="8.5" stroke="#C4C4C4" stroke-width="3"/>
<circle cx="132" cy="34" r="10" fill="#28A745"/>
<rect x="128" y="33.9724" width="2" height="5" transform="rotate(-45 128 33.9724)" fill="white"/>
<rect x="135.094" y="31" width="2" height="7.20379" transform="rotate(45 135.094 31)" fill="white"/>
</svg>
